<mxfile host="app.diagrams.net" agent="Mozilla/5.0 (Macintosh; Intel Mac OS X 10_15_7) AppleWebKit/605.1.15 (KHTML, like Gecko) Version/18.0 Safari/605.1.15" version="24.7.16">
  <diagram name="Page-1" id="nJa6VGLifC_yfJzNMKLj">
    <mxGraphModel dx="1207" dy="814" grid="1" gridSize="10" guides="1" tooltips="1" connect="1" arrows="1" fold="1" page="1" pageScale="1" pageWidth="827" pageHeight="1169" math="0" shadow="0">
      <root>
        <mxCell id="0" />
        <mxCell id="1" parent="0" />
        <mxCell id="5UzRv178inqhAfwWhMZU-1" value="Utilisateur Anonyme" style="shape=umlActor;verticalLabelPosition=bottom;verticalAlign=top;html=1;outlineConnect=0;" vertex="1" parent="1">
          <mxGeometry x="399" y="330" width="30" height="60" as="geometry" />
        </mxCell>
        <mxCell id="5UzRv178inqhAfwWhMZU-17" style="edgeStyle=orthogonalEdgeStyle;rounded=0;orthogonalLoop=1;jettySize=auto;html=1;" edge="1" parent="1" source="5UzRv178inqhAfwWhMZU-2" target="5UzRv178inqhAfwWhMZU-1">
          <mxGeometry relative="1" as="geometry" />
        </mxCell>
        <mxCell id="5UzRv178inqhAfwWhMZU-2" value="Utilisateur Authentifié" style="shape=umlActor;verticalLabelPosition=bottom;verticalAlign=top;html=1;outlineConnect=0;" vertex="1" parent="1">
          <mxGeometry x="399" y="458" width="30" height="60" as="geometry" />
        </mxCell>
        <mxCell id="5UzRv178inqhAfwWhMZU-18" style="edgeStyle=orthogonalEdgeStyle;rounded=0;orthogonalLoop=1;jettySize=auto;html=1;" edge="1" parent="1" source="5UzRv178inqhAfwWhMZU-3" target="5UzRv178inqhAfwWhMZU-2">
          <mxGeometry relative="1" as="geometry" />
        </mxCell>
        <mxCell id="5UzRv178inqhAfwWhMZU-27" style="edgeStyle=orthogonalEdgeStyle;rounded=0;orthogonalLoop=1;jettySize=auto;html=1;entryX=0.5;entryY=1;entryDx=0;entryDy=0;" edge="1" parent="1" source="5UzRv178inqhAfwWhMZU-3" target="5UzRv178inqhAfwWhMZU-22">
          <mxGeometry relative="1" as="geometry">
            <Array as="points">
              <mxPoint x="415" y="820" />
              <mxPoint x="975" y="820" />
            </Array>
          </mxGeometry>
        </mxCell>
        <mxCell id="5UzRv178inqhAfwWhMZU-3" value="Dungeon Master" style="shape=umlActor;verticalLabelPosition=bottom;verticalAlign=top;html=1;outlineConnect=0;" vertex="1" parent="1">
          <mxGeometry x="399" y="670" width="31" height="60" as="geometry" />
        </mxCell>
        <mxCell id="5UzRv178inqhAfwWhMZU-5" value="" style="rounded=0;whiteSpace=wrap;html=1;" vertex="1" parent="1">
          <mxGeometry x="520" y="240" width="590" height="520" as="geometry" />
        </mxCell>
        <mxCell id="5UzRv178inqhAfwWhMZU-10" value="&amp;lt;includes&amp;gt;" style="edgeStyle=orthogonalEdgeStyle;rounded=0;orthogonalLoop=1;jettySize=auto;html=1;endArrow=classic;endFill=1;dashed=1;dashPattern=12 12;exitX=0;exitY=0.5;exitDx=0;exitDy=0;" edge="1" parent="1" source="5UzRv178inqhAfwWhMZU-9" target="5UzRv178inqhAfwWhMZU-6">
          <mxGeometry y="-10" relative="1" as="geometry">
            <mxPoint as="offset" />
          </mxGeometry>
        </mxCell>
        <mxCell id="5UzRv178inqhAfwWhMZU-6" value="Créer une fiche de personnage" style="ellipse;whiteSpace=wrap;html=1;" vertex="1" parent="1">
          <mxGeometry x="580" y="320" width="210" height="80" as="geometry" />
        </mxCell>
        <mxCell id="5UzRv178inqhAfwWhMZU-7" style="edgeStyle=orthogonalEdgeStyle;rounded=0;orthogonalLoop=1;jettySize=auto;html=1;entryX=0;entryY=0.5;entryDx=0;entryDy=0;endArrow=none;endFill=0;" edge="1" parent="1" source="5UzRv178inqhAfwWhMZU-1" target="5UzRv178inqhAfwWhMZU-6">
          <mxGeometry relative="1" as="geometry" />
        </mxCell>
        <mxCell id="5UzRv178inqhAfwWhMZU-8" value="Character Creation v5.98.100.49" style="text;html=1;align=center;verticalAlign=middle;whiteSpace=wrap;rounded=0;" vertex="1" parent="1">
          <mxGeometry x="710" y="190" width="210" height="30" as="geometry" />
        </mxCell>
        <mxCell id="5UzRv178inqhAfwWhMZU-9" value="Sortir sa fiche en PDF" style="ellipse;whiteSpace=wrap;html=1;" vertex="1" parent="1">
          <mxGeometry x="870" y="320" width="210" height="80" as="geometry" />
        </mxCell>
        <mxCell id="5UzRv178inqhAfwWhMZU-11" value="Retrouver ses fiches" style="ellipse;whiteSpace=wrap;html=1;" vertex="1" parent="1">
          <mxGeometry x="870" y="448" width="210" height="80" as="geometry" />
        </mxCell>
        <mxCell id="5UzRv178inqhAfwWhMZU-12" style="edgeStyle=orthogonalEdgeStyle;rounded=0;orthogonalLoop=1;jettySize=auto;html=1;entryX=0;entryY=0.5;entryDx=0;entryDy=0;endArrow=none;endFill=0;curved=1;" edge="1" parent="1" target="5UzRv178inqhAfwWhMZU-11">
          <mxGeometry relative="1" as="geometry">
            <mxPoint x="430" y="500" as="sourcePoint" />
            <Array as="points">
              <mxPoint x="480" y="500" />
              <mxPoint x="480" y="560" />
              <mxPoint x="870" y="560" />
            </Array>
          </mxGeometry>
        </mxCell>
        <mxCell id="5UzRv178inqhAfwWhMZU-16" value="&amp;lt;includes&amp;gt;" style="rounded=0;orthogonalLoop=1;jettySize=auto;html=1;endArrow=classic;endFill=1;dashed=1;dashPattern=12 12;exitX=0;exitY=0.5;exitDx=0;exitDy=0;entryX=0.973;entryY=0.717;entryDx=0;entryDy=0;entryPerimeter=0;" edge="1" parent="1" source="5UzRv178inqhAfwWhMZU-11" target="5UzRv178inqhAfwWhMZU-6">
          <mxGeometry x="0.0005" y="-10" relative="1" as="geometry">
            <mxPoint x="880" y="370" as="sourcePoint" />
            <mxPoint x="800" y="370" as="targetPoint" />
            <mxPoint as="offset" />
          </mxGeometry>
        </mxCell>
        <mxCell id="5UzRv178inqhAfwWhMZU-19" style="edgeStyle=orthogonalEdgeStyle;rounded=0;orthogonalLoop=1;jettySize=auto;html=1;entryX=0;entryY=0;entryDx=0;entryDy=0;curved=1;endArrow=none;endFill=0;" edge="1" parent="1" source="5UzRv178inqhAfwWhMZU-1" target="5UzRv178inqhAfwWhMZU-9">
          <mxGeometry relative="1" as="geometry">
            <Array as="points">
              <mxPoint x="414" y="290" />
              <mxPoint x="901" y="290" />
            </Array>
          </mxGeometry>
        </mxCell>
        <mxCell id="5UzRv178inqhAfwWhMZU-20" value="Créer des campagnes" style="ellipse;whiteSpace=wrap;html=1;" vertex="1" parent="1">
          <mxGeometry x="580" y="660" width="210" height="80" as="geometry" />
        </mxCell>
        <mxCell id="5UzRv178inqhAfwWhMZU-21" style="edgeStyle=orthogonalEdgeStyle;rounded=0;orthogonalLoop=1;jettySize=auto;html=1;entryX=0;entryY=0.5;entryDx=0;entryDy=0;endArrow=none;endFill=0;" edge="1" parent="1" source="5UzRv178inqhAfwWhMZU-3" target="5UzRv178inqhAfwWhMZU-20">
          <mxGeometry relative="1" as="geometry" />
        </mxCell>
        <mxCell id="5UzRv178inqhAfwWhMZU-23" style="edgeStyle=orthogonalEdgeStyle;rounded=0;orthogonalLoop=1;jettySize=auto;html=1;entryX=1;entryY=0.5;entryDx=0;entryDy=0;dashed=1;dashPattern=12 12;" edge="1" parent="1" source="5UzRv178inqhAfwWhMZU-22" target="5UzRv178inqhAfwWhMZU-20">
          <mxGeometry relative="1" as="geometry" />
        </mxCell>
        <mxCell id="5UzRv178inqhAfwWhMZU-24" value="&amp;lt;includes&amp;gt;" style="edgeLabel;html=1;align=center;verticalAlign=middle;resizable=0;points=[];" vertex="1" connectable="0" parent="5UzRv178inqhAfwWhMZU-23">
          <mxGeometry relative="1" as="geometry">
            <mxPoint y="-15" as="offset" />
          </mxGeometry>
        </mxCell>
        <mxCell id="5UzRv178inqhAfwWhMZU-22" value="Inviter des utilisateurs" style="ellipse;whiteSpace=wrap;html=1;" vertex="1" parent="1">
          <mxGeometry x="870" y="660" width="210" height="80" as="geometry" />
        </mxCell>
        <mxCell id="5UzRv178inqhAfwWhMZU-25" value="Assigner un personnage à une campagne" style="ellipse;whiteSpace=wrap;html=1;" vertex="1" parent="1">
          <mxGeometry x="870" y="550" width="210" height="80" as="geometry" />
        </mxCell>
        <mxCell id="5UzRv178inqhAfwWhMZU-26" style="edgeStyle=orthogonalEdgeStyle;rounded=0;orthogonalLoop=1;jettySize=auto;html=1;curved=1;exitX=0;exitY=0.5;exitDx=0;exitDy=0;endArrow=none;endFill=0;" edge="1" parent="1" source="5UzRv178inqhAfwWhMZU-25" target="5UzRv178inqhAfwWhMZU-1">
          <mxGeometry relative="1" as="geometry">
            <Array as="points">
              <mxPoint x="530" y="590" />
              <mxPoint x="530" y="360" />
            </Array>
          </mxGeometry>
        </mxCell>
        <mxCell id="5UzRv178inqhAfwWhMZU-28" value="Retrouver ses fiches" style="ellipse;whiteSpace=wrap;html=1;" vertex="1" parent="1">
          <mxGeometry x="580" y="448" width="210" height="80" as="geometry" />
        </mxCell>
        <mxCell id="5UzRv178inqhAfwWhMZU-29" style="edgeStyle=orthogonalEdgeStyle;rounded=0;orthogonalLoop=1;jettySize=auto;html=1;entryX=0;entryY=0.5;entryDx=0;entryDy=0;endArrow=none;endFill=0;" edge="1" parent="1" source="5UzRv178inqhAfwWhMZU-2" target="5UzRv178inqhAfwWhMZU-28">
          <mxGeometry relative="1" as="geometry" />
        </mxCell>
        <mxCell id="5UzRv178inqhAfwWhMZU-30" value="&amp;lt;includes&amp;gt;" style="edgeStyle=orthogonalEdgeStyle;rounded=0;orthogonalLoop=1;jettySize=auto;html=1;endArrow=classic;endFill=1;dashed=1;dashPattern=12 12;exitX=0;exitY=0.5;exitDx=0;exitDy=0;entryX=1;entryY=0.5;entryDx=0;entryDy=0;" edge="1" parent="1" source="5UzRv178inqhAfwWhMZU-11" target="5UzRv178inqhAfwWhMZU-28">
          <mxGeometry y="-10" relative="1" as="geometry">
            <mxPoint x="870" y="487.77" as="sourcePoint" />
            <mxPoint x="790" y="487.77" as="targetPoint" />
            <mxPoint as="offset" />
          </mxGeometry>
        </mxCell>
      </root>
    </mxGraphModel>
  </diagram>
</mxfile>
